<svg width="24" height="24" viewBox="0 0 24 24" fill="none" xmlns="http://www.w3.org/2000/svg">
<path d="M21 20H20.22V19.22C20.2175 17.4802 19.5868 15.7998 18.444 14.4879C17.3012 13.176 15.7231 12.321 14 12.08V12C14 11.7348 13.8946 11.4804 13.7071 11.2929C13.5196 11.1054 13.2652 11 13 11C12.7348 11 12.4804 11.1054 12.2929 11.2929C12.1054 11.4804 12 11.7348 12 12V12.08C10.2769 12.321 8.69883 13.176 7.55601 14.4879C6.41319 15.7998 5.78251 17.4802 5.78 19.22V20H5C4.73478 20 4.48043 20.1054 4.29289 20.2929C4.10536 20.4804 4 20.7348 4 21C4 21.2652 4.10536 21.5196 4.29289 21.7071C4.48043 21.8946 4.73478 22 5 22H21C21.2652 22 21.5196 21.8946 21.7071 21.7071C21.8946 21.5196 22 21.2652 22 21C22 20.7348 21.8946 20.4804 21.7071 20.2929C21.5196 20.1054 21.2652 20 21 20ZM13 15C11.9391 15 10.9217 15.4214 10.1716 16.1716C9.42143 16.9217 9 17.9391 9 19V20H7.78V19.22C7.78 17.8356 8.32996 16.5078 9.3089 15.5289C10.2878 14.55 11.6156 14 13 14C14.3844 14 15.7122 14.55 16.6911 15.5289C17.67 16.5078 18.22 17.8356 18.22 19.22V20H11V19C11 18.4696 11.2107 17.9609 11.5858 17.5858C11.9609 17.2107 12.4696 17 13 17C13.2652 17 13.5196 16.8946 13.7071 16.7071C13.8946 16.5196 14 16.2652 14 16C14 15.7348 13.8946 15.4804 13.7071 15.2929C13.5196 15.1054 13.2652 15 13 15ZM6 7C6 6.60444 6.1173 6.21776 6.33706 5.88886C6.55682 5.55996 6.86918 5.30362 7.23463 5.15224C7.60009 5.00087 8.00222 4.96126 8.39018 5.03843C8.77814 5.1156 9.13451 5.30608 9.41421 5.58579C9.69392 5.86549 9.8844 6.22186 9.96157 6.60982C10.0387 6.99778 9.99914 7.39992 9.84776 7.76537C9.69638 8.13082 9.44004 8.44318 9.11114 8.66294C8.78224 8.8827 8.39556 9 8 9C7.46957 9 6.96086 8.78929 6.58579 8.41421C6.21071 8.03914 6 7.53043 6 7ZM7 3C7 2.80222 7.05865 2.60888 7.16853 2.44443C7.27841 2.27998 7.43459 2.15181 7.61732 2.07612C7.80004 2.00043 8.00111 1.98063 8.19509 2.01922C8.38907 2.0578 8.56725 2.15304 8.70711 2.29289C8.84696 2.43275 8.9422 2.61093 8.98079 2.80491C9.01937 2.99889 8.99957 3.19996 8.92388 3.38268C8.84819 3.56541 8.72002 3.72159 8.55557 3.83147C8.39112 3.94135 8.19778 4 8 4C7.73478 4 7.48043 3.89464 7.29289 3.70711C7.10536 3.51957 7 3.26522 7 3ZM8 10C8.19778 10 8.39112 10.0587 8.55557 10.1685C8.72002 10.2784 8.84819 10.4346 8.92388 10.6173C8.99957 10.8 9.01937 11.0011 8.98079 11.1951C8.9422 11.3891 8.84696 11.5673 8.70711 11.7071C8.56725 11.847 8.38907 11.9422 8.19509 11.9808C8.00111 12.0194 7.80004 11.9996 7.61732 11.9239C7.43459 11.8482 7.27841 11.72 7.16853 11.5556C7.05865 11.3911 7 11.1978 7 11C7 10.7348 7.10536 10.4804 7.29289 10.2929C7.48043 10.1054 7.73478 10 8 10ZM12 6C12.1978 6 12.3911 6.05865 12.5556 6.16853C12.72 6.27841 12.8482 6.43459 12.9239 6.61732C12.9996 6.80004 13.0194 7.00111 12.9808 7.19509C12.9422 7.38907 12.847 7.56725 12.7071 7.70711C12.5673 7.84696 12.3891 7.9422 12.1951 7.98079C12.0011 8.01937 11.8 7.99957 11.6173 7.92388C11.4346 7.84819 11.2784 7.72002 11.1685 7.55557C11.0587 7.39112 11 7.19778 11 7C11 6.73478 11.1054 6.48043 11.2929 6.29289C11.4804 6.10536 11.7348 6 12 6ZM4 8C3.80222 8 3.60888 7.94135 3.44443 7.83147C3.27998 7.72159 3.15181 7.56541 3.07612 7.38268C3.00043 7.19996 2.98063 6.99889 3.01922 6.80491C3.0578 6.61093 3.15304 6.43275 3.29289 6.29289C3.43275 6.15304 3.61093 6.0578 3.80491 6.01922C3.99889 5.98063 4.19996 6.00043 4.38268 6.07612C4.56541 6.15181 4.72159 6.27998 4.83147 6.44443C4.94135 6.60888 5 6.80222 5 7C5 7.26522 4.89464 7.51957 4.70711 7.70711C4.51957 7.89464 4.26522 8 4 8ZM10.12 4.88C9.98097 4.73982 9.88654 4.56163 9.84862 4.36787C9.8107 4.17412 9.83098 3.97347 9.90691 3.79122C9.98284 3.60897 10.111 3.45328 10.2753 3.34376C10.4396 3.23424 10.6326 3.1758 10.83 3.1758C11.0274 3.1758 11.2204 3.23424 11.3847 3.34376C11.549 3.45328 11.6772 3.60897 11.7531 3.79122C11.829 3.97347 11.8493 4.17412 11.8114 4.36787C11.7735 4.56163 11.679 4.73982 11.54 4.88C11.447 4.97373 11.3364 5.04812 11.2146 5.09889C11.0927 5.14966 10.962 5.1758 10.83 5.1758C10.698 5.1758 10.5673 5.14966 10.4454 5.09889C10.3236 5.04812 10.213 4.97373 10.12 4.88ZM5.88 9.12C6.01903 9.26018 6.11346 9.43837 6.15138 9.63213C6.1893 9.82588 6.16902 10.0265 6.09309 10.2088C6.01717 10.391 5.88899 10.5467 5.72472 10.6562C5.56045 10.7658 5.36743 10.8242 5.17 10.8242C4.97257 10.8242 4.77955 10.7658 4.61528 10.6562C4.45101 10.5467 4.32284 10.391 4.24691 10.2088C4.17098 10.0265 4.1507 9.82588 4.18862 9.63213C4.22654 9.43837 4.32097 9.26018 4.46 9.12C4.55296 9.02627 4.66356 8.95188 4.78542 8.90111C4.90728 8.85034 5.03799 8.8242 5.17 8.8242C5.30201 8.8242 5.43272 8.85034 5.55458 8.90111C5.67644 8.95188 5.78704 9.02627 5.88 9.12ZM11.54 9.12C11.679 9.26018 11.7735 9.43837 11.8114 9.63213C11.8493 9.82588 11.829 10.0265 11.7531 10.2088C11.6772 10.391 11.549 10.5467 11.3847 10.6562C11.2204 10.7658 11.0274 10.8242 10.83 10.8242C10.6326 10.8242 10.4396 10.7658 10.2753 10.6562C10.111 10.5467 9.98284 10.391 9.90691 10.2088C9.83098 10.0265 9.8107 9.82588 9.84862 9.63213C9.88654 9.43837 9.98097 9.26018 10.12 9.12C10.213 9.02627 10.3236 8.95188 10.4454 8.90111C10.5673 8.85034 10.698 8.8242 10.83 8.8242C10.962 8.8242 11.0927 8.85034 11.2146 8.90111C11.3364 8.95188 11.447 9.02627 11.54 9.12ZM4.46 4.88C4.32097 4.73982 4.22654 4.56163 4.18862 4.36787C4.1507 4.17412 4.17098 3.97347 4.24691 3.79122C4.32284 3.60897 4.45101 3.45328 4.61528 3.34376C4.77955 3.23424 4.97257 3.1758 5.17 3.1758C5.36743 3.1758 5.56045 3.23424 5.72472 3.34376C5.88899 3.45328 6.01717 3.60897 6.09309 3.79122C6.16902 3.97347 6.1893 4.17412 6.15138 4.36787C6.11346 4.56163 6.01903 4.73982 5.88 4.88C5.78704 4.97373 5.67644 5.04812 5.55458 5.09889C5.43272 5.14966 5.30201 5.1758 5.17 5.1758C5.03799 5.1758 4.90728 5.14966 4.78542 5.09889C4.66356 5.04812 4.55296 4.97373 4.46 4.88Z" fill="#2C6EF2"/>
</svg>
